<?xml version="1.0" encoding="iso-8859-1"?>
<!-- Generator: Adobe Illustrator 19.0.0, SVG Export Plug-In . SVG Version: 6.00 Build 0)  -->
<svg xmlns="http://www.w3.org/2000/svg" xmlns:xlink="http://www.w3.org/1999/xlink" version="1.1" id="Layer_1" x="0px" y="0px" viewBox="0 0 512 512" style="enable-background:new 0 0 512 512;" xml:space="preserve" width="512px" height="512px">
<g>
	<g>
		<path d="M508.872,323.115l-42.667-42.667c-4.16-4.16-10.923-4.16-15.083,0L280.456,451.115c-1.984,2.005-3.115,4.715-3.115,7.552    v42.667c0,5.888,4.779,10.667,10.667,10.667h42.667c2.837,0,5.547-1.131,7.531-3.136l170.667-170.667    C513.032,334.037,513.032,327.275,508.872,323.115z M326.259,490.667h-27.584v-27.584l160-160l27.584,27.584L326.259,490.667z" fill="#E53155"/>
	</g>
</g>
<g>
	<g>
		<path d="M466.205,365.803l-42.667-42.667c-4.16-4.16-10.923-4.16-15.083,0c-4.16,4.16-4.16,10.923,0,15.083l42.667,42.667    c2.091,2.069,4.821,3.115,7.552,3.115s5.461-1.045,7.531-3.115C470.365,376.725,470.365,369.963,466.205,365.803z" fill="#E53155"/>
	</g>
</g>
<g>
	<g>
		<path d="M373.341,0H138.675c-2.837,0-5.547,1.131-7.552,3.115l-128,128c-1.984,2.005-3.115,4.715-3.115,7.552v320    c0,5.888,4.779,10.667,10.667,10.667h224c5.888,0,10.667-4.779,10.667-10.667S240.563,448,234.675,448H21.341V143.083    L143.091,21.333h219.584v288c0,5.888,4.779,10.667,10.667,10.667c5.888,0,10.667-4.779,10.667-10.667V10.667    C384.008,4.779,379.229,0,373.341,0z" fill="#E53155"/>
	</g>
</g>
<g>
	<g>
		<path d="M138.675,0c-5.888,0-10.667,4.779-10.667,10.667V128H10.675c-5.888,0-10.667,4.779-10.667,10.667    s4.779,10.667,10.667,10.667h128c5.888,0,10.667-4.779,10.667-10.667v-128C149.341,4.779,144.563,0,138.675,0z" fill="#E53155"/>
	</g>
</g>
<g>
	<g>
		<path d="M268.509,138.837c-0.064,0-2.219-0.363-2.283-0.363c-26.091-4.011-31.552-10.816-31.552-15.808    c0-7.403,13.995-16,32.021-16c17.963,0,31.296,8.085,32.021,15.381c0.597,5.845,5.824,10.091,11.691,9.536    c5.867-0.597,10.133-5.824,9.536-11.691c-1.984-19.712-24.875-34.56-53.248-34.56c-29.909,0-53.355,16.384-53.355,37.333    c0,29.269,37.376,35.008,51.563,37.184c0.064,0,2.219,0.363,2.283,0.363c26.027,3.989,31.488,10.795,31.488,15.787    c0,7.403-13.995,16-32.021,16c-17.963,0-31.296-8.107-32.021-15.381c-0.576-5.845-5.611-10.027-11.691-9.536    c-5.845,0.597-10.133,5.824-9.536,11.691c1.984,19.691,24.875,34.56,53.248,34.56c29.909,0,53.355-16.405,53.355-37.333    C320.008,146.709,282.675,140.992,268.509,138.837z" fill="#E53155"/>
	</g>
</g>
<g>
	<g>
		<path d="M160.008,213.333H53.341c-5.888,0-10.667,4.779-10.667,10.667s4.779,10.667,10.667,10.667h106.667    c5.888,0,10.667-4.779,10.667-10.667S165.896,213.333,160.008,213.333z" fill="#E53155"/>
	</g>
</g>
<g>
	<g>
		<path d="M288.008,298.667H53.341c-5.888,0-10.667,4.779-10.667,10.667S47.453,320,53.341,320h234.667    c5.888,0,10.667-4.779,10.667-10.667S293.896,298.667,288.008,298.667z" fill="#E53155"/>
	</g>
</g>
<g>
	<g>
		<path d="M138.675,384H53.341c-5.888,0-10.667,4.779-10.667,10.667s4.779,10.667,10.667,10.667h85.333    c5.888,0,10.667-4.779,10.667-10.667S144.563,384,138.675,384z" fill="#E53155"/>
	</g>
</g>
<g>
	<g>
		<path d="M266.675,64c-5.888,0-10.667,4.779-10.667,10.667V224c0,5.888,4.779,10.667,10.667,10.667s10.667-4.779,10.667-10.667    V74.667C277.341,68.779,272.563,64,266.675,64z" fill="#E53155"/>
	</g>
</g>
<g>
</g>
<g>
</g>
<g>
</g>
<g>
</g>
<g>
</g>
<g>
</g>
<g>
</g>
<g>
</g>
<g>
</g>
<g>
</g>
<g>
</g>
<g>
</g>
<g>
</g>
<g>
</g>
<g>
</g>
</svg>
