<?xml version="1.0" encoding="iso-8859-1"?>
<!-- Generator: Adobe Illustrator 19.0.0, SVG Export Plug-In . SVG Version: 6.00 Build 0)  -->
<svg xmlns="http://www.w3.org/2000/svg" xmlns:xlink="http://www.w3.org/1999/xlink" version="1.1" id="Layer_1" x="0px" y="0px" viewBox="0 0 512 512" style="enable-background:new 0 0 512 512;" xml:space="preserve" width="512px" height="512px">
<g>
	<g>
		<path d="M256,0C114.837,0,0,114.837,0,256s114.837,256,256,256s256-114.837,256-256S397.163,0,256,0z M256,490.667    c-39.872,0-77.397-10.048-110.315-27.669l43.157-14.379c3.456-1.152,6.101-3.989,6.976-7.531l8.597-34.368    c0.747-2.944,0.192-6.037-1.493-8.555c-1.707-2.496-4.373-4.16-7.381-4.587c-35.413-4.928-59.904-13.355-73.237-18.987    c13.227-17.92,33.557-58.368,33.557-137.557c0-107.179,80.256-130.368,100.139-130.368c24.619,0,29.888,4.096,42.837,17.045    c2.005,1.984,4.736,3.115,7.552,3.115h10.069c34.539,0,39.701,69.056,39.701,110.229c0,79.125,20.288,119.573,33.515,137.515    c-13.44,5.632-37.995,14.059-73.237,18.987c-2.987,0.405-5.675,2.091-7.36,4.587c-1.685,2.517-2.24,5.632-1.493,8.555    l8.597,34.411c0.875,3.541,3.52,6.379,6.976,7.531l43.136,14.379C333.376,480.619,295.851,490.667,256,490.667z M389.952,448.405    l-54.485-18.176l-4.352-17.387c52.928-9.003,80.213-24.875,81.429-25.6c3.029-1.792,4.907-4.992,5.163-8.491    c0.256-3.499-1.323-6.933-4.053-9.131c-0.363-0.277-36.16-29.931-36.16-132.587c0-87.296-20.544-131.563-61.035-131.563h-5.717    C296.256,91.52,285.269,85.333,256,85.333c-38.037,0-121.472,38.187-121.472,151.701c0,102.656-35.797,132.309-36.032,132.501    c-2.859,2.112-4.437,5.525-4.267,9.067c0.192,3.541,2.112,6.763,5.163,8.597c1.195,0.725,28.224,16.683,81.493,25.685    l-4.331,17.344l-54.507,18.176C61.269,405.952,21.333,335.595,21.333,256c0-129.387,105.28-234.667,234.667-234.667    S490.667,126.613,490.667,256C490.667,335.595,450.731,405.952,389.952,448.405z" fill="#E53155"/>
	</g>
</g>
<g>
</g>
<g>
</g>
<g>
</g>
<g>
</g>
<g>
</g>
<g>
</g>
<g>
</g>
<g>
</g>
<g>
</g>
<g>
</g>
<g>
</g>
<g>
</g>
<g>
</g>
<g>
</g>
<g>
</g>
</svg>
